<?xml version="1.0" encoding="UTF-8"?>
<svg xmlns="http://www.w3.org/2000/svg" version="1.1" viewBox="0 0 1359.5 244.8">
    <defs>
        <style>
            .cls-1 {
            fill: #2c3e4c;
            }

            .cls-2 {
            fill: #1e90ff;
            }
        </style>
    </defs>
    <!-- Generator: Adobe Illustrator 28.7.3, SVG Export Plug-In . SVG Version: 1.2.0 Build 164)  -->
    <g>
        <g id="Layer_1">
            <g id="Layer_1-2" data-name="Layer_1">
                <g id="Layer_1-2">
                    <path class="cls-1"
                          d="M329.2,183.4V61.2h24.4l45.3,60.7h-11.4l44-60.7h24.4v122.2h-25.2v-94.1l10.1,2.3-46.6,60.7h-3.2l-45-60.7,8.4-2.3v94.1h-25.2,0Z"/>
                    <path class="cls-1" d="M477.3,183.4V61.2h82.8v22.1h-57.6v31h49.5v22.1h-49.5v46.9h-25.2Z"/>
                    <path class="cls-1" d="M594.3,183.4v-100h-30.7v-22.1h86v22.1h-30.2v100h-25.2.1Z"/>
                    <path class="cls-1"
                          d="M750,185.4c-8.5,0-16.5-1.6-23.7-4.7s-13.6-7.5-18.9-13.2c-5.4-5.7-9.5-12.3-12.5-20-3-7.6-4.5-16-4.5-25.1s1.5-17.6,4.5-25.3c3-7.6,7.1-14.3,12.4-20,5.3-5.7,11.5-10.1,18.8-13.2,7.2-3.1,15.1-4.7,23.8-4.7s15.8,1.5,22.5,4.4,12.3,6.8,16.9,11.5c4.6,4.7,7.9,9.7,9.8,15.1l-14.3,7.1c-2.8-7-7.2-12.6-13.2-16.8s-13.2-6.3-21.7-6.3-15.9,2-22.5,6.1-11.7,9.7-15.3,16.9c-3.7,7.2-5.5,15.6-5.5,25.3s1.9,17.9,5.6,25.1c3.7,7.2,8.9,12.9,15.4,16.9s14,6.1,22.5,6.1,13.8-1.6,19.8-4.8,10.7-7.5,14.2-13.1,5.3-12,5.3-19.4v-7.5l7.3,6.9h-46.8v-13.9h55.5v10.8c0,8.5-1.5,16.2-4.4,23.1s-6.9,12.8-12,17.7-11,8.7-17.7,11.2c-6.7,2.6-13.8,3.9-21.3,3.9h0Z"/>
                    <path class="cls-1"
                          d="M847.4,185.4c-5.7,0-10.8-1.1-15.3-3.2s-7.9-5.1-10.4-8.9-3.7-8.1-3.7-13,1-8.9,3.1-12.7,5.2-7,9.5-9.6,9.7-4.5,16.2-5.6l32.3-5.4v12.8l-28.9,5.1c-5.6,1-9.7,2.8-12.3,5.3-2.5,2.6-3.8,5.8-3.8,9.6s1.4,6.6,4.3,9c2.9,2.4,6.5,3.6,10.8,3.6s10.3-1.2,14.4-3.5c4.1-2.4,7.2-5.6,9.5-9.6s3.4-8.5,3.4-13.3v-22.6c0-4.8-1.7-8.7-5.2-11.7s-8.1-4.5-13.8-4.5-9.4,1.3-13.2,3.9-6.7,6-8.5,10.2l-13.1-6.9c1.6-4,4.2-7.7,7.8-10.9s7.7-5.8,12.5-7.6,9.7-2.8,14.9-2.8,12.6,1.3,17.7,3.8c5.1,2.6,9.1,6.2,11.9,10.7s4.3,9.8,4.3,15.7v60h-14.8v-16.7l2.8,1.1c-1.8,3.4-4.4,6.4-7.5,9.1s-6.9,4.8-11,6.2c-4.2,1.5-8.7,2.2-13.7,2.2h0l-.2.2Z"/>
                    <path class="cls-1"
                          d="M945.8,184.4c-8.6,0-15.2-2.5-19.8-7.4-4.7-4.9-7-11.9-7-20.8v-46.6h-15.8v-14.6h3.2c3.9,0,6.9-1.2,9.2-3.6,2.2-2.4,3.3-5.6,3.3-9.5v-7.2h15.3v20.3h19.7v14.6h-19.7v46.1c0,2.9.5,5.5,1.4,7.7s2.5,3.9,4.6,5.2c2.2,1.3,5,1.9,8.6,1.9s1.7,0,2.8-.2c1.1-.1,2.2-.2,3.2-.3v13.4c-1.4.3-3,.6-4.7.7-1.7.2-3.2.2-4.4.2h.1Z"/>
                    <path class="cls-1"
                          d="M1009.1,185.4c-8.4,0-16-2-22.7-6.1-6.7-4-11.9-9.6-15.7-16.6-3.8-7.1-5.7-15-5.7-23.7s1.9-16.7,5.7-23.6,8.9-12.3,15.3-16.3,13.6-6,21.8-6,12.3,1.2,17.3,3.5c5,2.3,9.3,5.5,12.8,9.5s6.2,8.5,8.1,13.6,2.8,10.4,2.8,15.8,0,2.7-.2,4.1-.3,2.8-.6,4.3h-71.8v-13.3h63l-7.3,5.9c1.1-5.7.6-10.8-1.5-15.2-2.1-4.5-5.1-8-9.1-10.7-4-2.6-8.5-3.9-13.6-3.9s-9.7,1.3-14,4c-4.2,2.7-7.5,6.4-9.8,11.2s-3.3,10.5-2.8,17.2c-.4,6.5.6,12.1,3,17s5.9,8.6,10.4,11.3,9.4,4,14.7,4,10.8-1.4,14.8-4.1,7.2-6.2,9.7-10.5l12.7,6.6c-1.7,4-4.4,7.7-8,11.1-3.6,3.3-7.9,6-12.9,8s-10.4,3-16.4,3h0Z"/>
                    <path class="cls-1"
                          d="M1085.4,183.4l-30-88.4h16.7l23.9,74-5.8-.2,23.4-73.8h14.3l23.4,73.8-5.8.2,24-74h16.6l-30,88.4h-14.5l-23-73.8h4.5l-23,73.8h-14.7Z"/>
                    <path class="cls-1"
                          d="M1218.6,185.4c-5.7,0-10.8-1.1-15.3-3.2-4.4-2.1-7.9-5.1-10.4-8.9s-3.7-8.1-3.7-13,1-8.9,3.1-12.7,5.2-7,9.5-9.6,9.7-4.5,16.2-5.6l32.3-5.4v12.8l-28.9,5.1c-5.6,1-9.7,2.8-12.3,5.3-2.5,2.6-3.8,5.8-3.8,9.6s1.4,6.6,4.3,9,6.5,3.6,10.8,3.6,10.3-1.2,14.4-3.5c4.1-2.4,7.2-5.6,9.5-9.6s3.4-8.5,3.4-13.3v-22.6c0-4.8-1.7-8.7-5.2-11.7s-8.1-4.5-13.8-4.5-9.4,1.3-13.2,3.9c-3.8,2.6-6.7,6-8.5,10.2l-13.2-6.9c1.6-4,4.2-7.7,7.8-10.9,3.6-3.2,7.7-5.8,12.5-7.6s9.7-2.8,14.9-2.8,12.6,1.3,17.7,3.8c5.1,2.6,9.1,6.2,11.9,10.7s4.3,9.8,4.3,15.7v60h-14.8v-16.7l2.8,1.1c-1.8,3.4-4.4,6.4-7.6,9.1s-6.9,4.8-11,6.2c-4.2,1.5-8.7,2.2-13.7,2.2h0v.2h0Z"/>
                    <path class="cls-1"
                          d="M1287.7,219.5c-1.9,0-3.9-.2-5.8-.5s-3.8-.9-5.5-1.6v-13.6c1.2.2,2.7.5,4.5.7,1.8.3,3.5.4,5.3.4,5.1,0,9-1.1,11.6-3.4,2.7-2.2,5.2-6.1,7.6-11.6l5.5-13.3-.3,13.3-37.3-95h16.4l29.1,75.4h-4.9l28.9-75.4h16.7l-39.4,98.9c-1.8,4.7-4.2,9-7.1,13-2.9,3.9-6.4,7-10.5,9.3-4.1,2.2-9,3.4-14.6,3.4h-.2,0Z"/>
                    <path class="cls-2"
                          d="M106,0L0,61.2v5.6s0,0,0,0v116.7l106,61.2,106-61.2V61.2L106,0ZM19,105.1c1.6,2.9,3.1,5.9,4.7,8.8,7.5,14.1,15,28.3,22.4,42.4,1.2,2.3,3.3,4,5.8,4.7,2.5.7,5.1.4,7.4-.9l37.2-21.3c0,12.6-.1,25.2-.2,37.8,0,13.5-.1,27-.2,40.5l-77.1-44.5v-67.5ZM193,172.6l-77.9,45c0-13.6.1-27.3.2-40.9,0-18.1.1-36.1.2-54.2,0-3.4-1.8-6.5-4.7-8.3-2.9-1.7-6.6-1.7-9.5,0l-43,24.6c-5.9-11.2-11.9-22.5-17.8-33.7-6.1-11.6-12.3-23.2-18.4-34.7L106,21.9l87,50.2v100.5Z"/>
                </g>
            </g>
        </g>
    </g>
</svg>
